<?xml version="1.0" encoding="UTF-8"?>
<svg width="377px" height="466px" viewBox="0 0 377 466" version="1.1" xmlns="http://www.w3.org/2000/svg" xmlns:xlink="http://www.w3.org/1999/xlink">
    <title>形状结合</title>
    <g id="页面-1" stroke="none" stroke-width="1" fill="none" fill-rule="evenodd">
        <g id="画框mod" transform="translate(-226, -11)" fill="#D8D8D8" fill-rule="nonzero">
            <path d="M568,11 C587.329966,11 603,26.6364791 603,45.9250535 L603,301.376874 C603,328.167459 586.722461,351.164363 563.497824,361.05712 C560.683179,361.668182 557.995888,362.619215 555.479958,363.863292 L555.001443,363.996471 L555.001126,364.104659 C543.717347,369.901662 536,381.639314 536,395.175589 L536,477 L226,477 L226,135.732334 C226,99.9106955 255.101491,70.8715203 291,70.8715203 L396,70.8715203 L366,70.8715203 L366.000719,70.5177325 C381.328928,68.3295752 393.453173,56.2310068 395.645596,40.9354814 L396.354547,40.9350431 C398.781005,24.0102421 413.36789,11 431,11 L568,11 Z" id="形状结合"></path>
        </g>
    </g>
</svg>