<?xml version="1.0" encoding="UTF-8"?>
<svg width="239px" height="467px" viewBox="0 0 239 467" version="1.1" xmlns="http://www.w3.org/2000/svg" xmlns:xlink="http://www.w3.org/1999/xlink">
    <title>编组</title>
    <g id="页面-1" stroke="none" stroke-width="1" fill="none" fill-rule="evenodd">
        <g id="画框mod" transform="translate(-544, -11)" fill="#D8D8D8">
            <g id="编组" transform="translate(544, 11)">
                <path d="M239,79 L239,467 L0.355,467 L0.355437666,397 C0.355437666,383.592413 7.85436067,371.945635 18.8656754,366.067457 L19.2557619,365.862394 L19.2560773,365.753974 L19.7320537,365.620509 C22.2346366,364.373763 24.9076714,363.420689 27.7073846,362.808316 C50.808814,352.894329 67,329.848076 67,303 L67,79 L239,79 Z" id="形状结合"></path>
                <path d="M122,0 L184,7.10542736e-15 C214.375661,0 239,24.6243388 239,55 L239,79 L239,79 L67,79 L67,55 C67,24.6243388 91.6243388,1.42108547e-14 122,7.10542736e-15 Z" id="矩形-5"></path>
            </g>
        </g>
    </g>
</svg>