<?xml version="1.0" encoding="UTF-8"?>
<svg width="794px" height="478px" viewBox="0 0 794 478" version="1.1" xmlns="http://www.w3.org/2000/svg" xmlns:xlink="http://www.w3.org/1999/xlink">
    <title>画框mod</title>
    <g id="页面-1" stroke="none" stroke-width="1" fill="none" fill-rule="evenodd">
        <g id="画框mod">
            <g id="path-1-link" fill="#FFFFFF" fill-rule="nonzero">
                <path d="M0,0 L794,0 C794,152.292861 794,266.491601 794,342.59622 C794,418.70084 794,463.835433 794,478 L0,478 L0,0 Z" id="path-1"></path>
            </g>
            <path d="M568,11 C587.329966,11 603,26.6364791 603,45.9250535 L603,301.376874 C603,328.167459 586.722461,351.164363 563.497824,361.05712 C560.683179,361.668182 557.995888,362.619215 555.479958,363.863292 L555.001443,363.996471 L555.001126,364.104659 C543.717347,369.901662 536,381.639314 536,395.175589 L536,477 L226,477 L226,135.732334 C226,99.9106955 255.101491,70.8715203 291,70.8715203 L396,70.8715203 L366,70.8715203 L366.000719,70.5177325 C381.328928,68.3295752 393.453173,56.2310068 395.645596,40.9354814 L396.354547,40.9350431 C398.781005,24.0102421 413.36789,11 431,11 L568,11 Z" id="形状结合" fill="#D8D8D8" fill-rule="nonzero"></path>
            <rect id="矩形" fill="#D8D8D8" x="226" y="11" width="161" height="54" rx="27"></rect>
            <rect id="矩形" fill="#FFFFFF" x="404" y="16" width="187" height="49" rx="24.5"></rect>
            <rect id="矩形-2" fill="#D8D8D8" x="6" y="11" width="212" height="360" rx="55"></rect>
            <path d="M61,378 L163,378 C193.375661,378 218,402.624339 218,433 L218,477 L218,477 L6,477 L6,433 C6,402.624339 30.6243388,378 61,378 Z" id="矩形-2" fill="#D8D8D8"></path>
            <g id="编组" transform="translate(544, 11)" fill="#D8D8D8">
                <path d="M239,79 L239,467 L0.355,467 L0.355437666,397 C0.355437666,383.592413 7.85436067,371.945635 18.8656754,366.067457 L19.2557619,365.862394 L19.2560773,365.753974 L19.7320537,365.620509 C22.2346366,364.373763 24.9076714,363.420689 27.7073846,362.808316 C50.808814,352.894329 67,329.848076 67,303 L67,79 L239,79 Z" id="形状结合"></path>
                <path d="M122,0 L184,7.10542736e-15 C214.375661,0 239,24.6243388 239,55 L239,79 L239,79 L67,79 L67,55 C67,24.6243388 91.6243388,1.42108547e-14 122,7.10542736e-15 Z" id="矩形-5"></path>
            </g>
            <rect id="矩形" fill="#EAE8E8" x="248" y="373" width="225" height="99" rx="49.5"></rect>
        </g>
    </g>
</svg>