<?xml version="1.0" encoding="UTF-8"?>
<svg width="589px" height="604px" viewBox="0 0 589 604" version="1.1" xmlns="http://www.w3.org/2000/svg" xmlns:xlink="http://www.w3.org/1999/xlink">
    <title>画框</title>
    <g id="页面-1" stroke="none" stroke-width="1" fill="none" fill-rule="evenodd">
        <g id="画框">
            <g id="path-1-link" fill="#FFFFFF">
                <polygon id="path-1" points="0 0 589 0 589 604 0 604"></polygon>
            </g>
            <path d="M448,57 C467.329966,57 483,72.6700338 483,92 L483,348 C483,374.848076 466.722461,397.894329 443.497824,407.808316 C440.683179,408.420689 437.995888,409.373763 435.479958,410.620509 L435.001443,410.753974 L435.001126,410.862394 C423.717347,416.671837 416,428.434677 416,442 L416,524 L106,524 L106,182 C106,146.101491 135.101491,117 171,117 L276,117 L246,117 L246.000719,116.645453 C261.328928,114.4526 273.453173,102.328069 275.645596,86.9997206 L276.354547,86.9992814 C278.781005,70.0381611 293.36789,57 311,57 L448,57 Z" id="形状结合" fill="#D8D8D8"></path>
        </g>
    </g>
</svg>